<svg xmlns="http://www.w3.org/2000/svg" width="66.686" height="75.021" viewBox="0 0 66.686 75.021">
    <g>
        <path fill="#fc6602" d="M52.4 23.444v-4.689a19.055 19.055 0 0 0-38.106 0v4.689H0V63.3a11.816 11.816 0 0 0 11.908 11.721h42.87A11.816 11.816 0 0 0 66.686 63.3V23.444zm-28.58-4.689a9.528 9.528 0 0 1 19.053 0v4.689H23.816zm23.813 17.584a3.517 3.517 0 1 1 3.572-3.517 3.545 3.545 0 0 1-3.572 3.517zm-28.58 0a3.517 3.517 0 1 1 3.572-3.517 3.545 3.545 0 0 1-3.572 3.517z" transform="translate(-701 -304.49) translate(701 304.49)"/>
        <path fill="none" stroke="#ffe6c7" stroke-linecap="round" stroke-width="3.5px" d="M10633.6 8758.245s-7.292 10.393-17.94 9.932-15.985-9.932-15.985-9.932" transform="translate(-701 -304.49) translate(-9882.178 -8405.511)"/>
    </g>
</svg>
